<mxfile host="app.diagrams.net" modified="2022-07-05T17:11:25.068Z" agent="5.0 (Windows NT 10.0; Win64; x64) AppleWebKit/537.36 (KHTML, like Gecko) Chrome/103.0.0.0 Safari/537.36" etag="7ZAtaJiTOc9QSXXlmF3U" version="20.0.4" type="github">
  <diagram id="C3n2u9p28RJBCAid8Xp9" name="Page-1">
    <mxGraphModel dx="1422" dy="-407" grid="1" gridSize="10" guides="1" tooltips="1" connect="1" arrows="1" fold="1" page="1" pageScale="1" pageWidth="827" pageHeight="1169" math="0" shadow="0">
      <root>
        <mxCell id="0" />
        <mxCell id="1" parent="0" />
        <mxCell id="xMmDxgA52zjlr51yU6Mr-23" value="DAX" style="rounded=1;whiteSpace=wrap;html=1;verticalAlign=top;" parent="1" vertex="1">
          <mxGeometry x="740" y="1546" width="160" height="420" as="geometry" />
        </mxCell>
        <mxCell id="xMmDxgA52zjlr51yU6Mr-22" value="Future Farming&lt;br&gt;(Vets/Payments)" style="rounded=1;whiteSpace=wrap;html=1;verticalAlign=top;" parent="1" vertex="1">
          <mxGeometry x="500" y="1440" width="160" height="526" as="geometry" />
        </mxCell>
        <mxCell id="xMmDxgA52zjlr51yU6Mr-20" value="Defra Identity" style="rounded=1;whiteSpace=wrap;html=1;verticalAlign=top;" parent="1" vertex="1">
          <mxGeometry x="260" y="1626" width="160" height="340" as="geometry" />
        </mxCell>
        <mxCell id="xMmDxgA52zjlr51yU6Mr-1" value="Sandpit&lt;br&gt;DefraCloudDev" style="rounded=1;whiteSpace=wrap;html=1;fillColor=#dae8fc;strokeColor=#6c8ebf;" parent="1" vertex="1">
          <mxGeometry x="520" y="1496" width="120" height="60" as="geometry" />
        </mxCell>
        <mxCell id="xMmDxgA52zjlr51yU6Mr-2" value="Development&lt;br&gt;DefraCloudDev" style="rounded=1;whiteSpace=wrap;html=1;fillColor=#dae8fc;strokeColor=#6c8ebf;" parent="1" vertex="1">
          <mxGeometry x="520" y="1576" width="120" height="60" as="geometry" />
        </mxCell>
        <mxCell id="xMmDxgA52zjlr51yU6Mr-3" value="Test&lt;br&gt;DefraCloudDev" style="rounded=1;whiteSpace=wrap;html=1;fillColor=#dae8fc;strokeColor=#6c8ebf;" parent="1" vertex="1">
          <mxGeometry x="520" y="1656" width="120" height="60" as="geometry" />
        </mxCell>
        <mxCell id="xMmDxgA52zjlr51yU6Mr-4" value="Train&lt;br&gt;DefraCloudPreProd" style="rounded=1;whiteSpace=wrap;html=1;fillColor=#dae8fc;strokeColor=#6c8ebf;" parent="1" vertex="1">
          <mxGeometry x="520" y="1736" width="120" height="60" as="geometry" />
        </mxCell>
        <mxCell id="xMmDxgA52zjlr51yU6Mr-5" value="Pre-Production&lt;br&gt;DefraCloudPreProd" style="rounded=1;whiteSpace=wrap;html=1;fillColor=#dae8fc;strokeColor=#6c8ebf;" parent="1" vertex="1">
          <mxGeometry x="520" y="1816" width="120" height="60" as="geometry" />
        </mxCell>
        <mxCell id="xMmDxgA52zjlr51yU6Mr-6" value="Production&lt;br&gt;DefraCloudProduction" style="rounded=1;whiteSpace=wrap;html=1;fillColor=#dae8fc;strokeColor=#6c8ebf;" parent="1" vertex="1">
          <mxGeometry x="520" y="1896" width="120" height="60" as="geometry" />
        </mxCell>
        <mxCell id="xMmDxgA52zjlr51yU6Mr-7" value="Development&lt;font face=&quot;calibri, sans-serif&quot;&gt;&lt;span style=&quot;font-size: 14.6667px&quot;&gt;&lt;br&gt;defradev-SAT&lt;/span&gt;&lt;/font&gt;&lt;br&gt;DefraDev" style="rounded=1;whiteSpace=wrap;html=1;fillColor=#dae8fc;strokeColor=#6c8ebf;" parent="1" vertex="1">
          <mxGeometry x="760" y="1576" width="120" height="60" as="geometry" />
        </mxCell>
        <mxCell id="xMmDxgA52zjlr51yU6Mr-8" value="Pre-Production&lt;br&gt;Defra-203&lt;br&gt;DefraPreProd" style="rounded=1;whiteSpace=wrap;html=1;fillColor=#dae8fc;strokeColor=#6c8ebf;" parent="1" vertex="1">
          <mxGeometry x="760" y="1726" width="120" height="60" as="geometry" />
        </mxCell>
        <mxCell id="xMmDxgA52zjlr51yU6Mr-9" value="Production&lt;br&gt;DefraProd" style="rounded=1;whiteSpace=wrap;html=1;fillColor=#dae8fc;strokeColor=#6c8ebf;" parent="1" vertex="1">
          <mxGeometry x="760" y="1896" width="120" height="60" as="geometry" />
        </mxCell>
        <mxCell id="xMmDxgA52zjlr51yU6Mr-14" value="Test&lt;br&gt;?" style="rounded=1;whiteSpace=wrap;html=1;fillColor=#dae8fc;strokeColor=#6c8ebf;" parent="1" vertex="1">
          <mxGeometry x="280" y="1656" width="120" height="60" as="geometry" />
        </mxCell>
        <mxCell id="xMmDxgA52zjlr51yU6Mr-18" value="Production&lt;br&gt;?" style="rounded=1;whiteSpace=wrap;html=1;fillColor=#dae8fc;strokeColor=#6c8ebf;" parent="1" vertex="1">
          <mxGeometry x="280" y="1896" width="120" height="60" as="geometry" />
        </mxCell>
        <mxCell id="o_UP_RoTdqypcuIoV4oH-2" value="Crown Hosting" style="rounded=1;whiteSpace=wrap;html=1;verticalAlign=top;" vertex="1" parent="1">
          <mxGeometry x="40" y="1626" width="160" height="340" as="geometry" />
        </mxCell>
        <mxCell id="o_UP_RoTdqypcuIoV4oH-3" value="Test&lt;br&gt;Horizon" style="rounded=1;whiteSpace=wrap;html=1;fillColor=#dae8fc;strokeColor=#6c8ebf;" vertex="1" parent="1">
          <mxGeometry x="60" y="1656" width="120" height="60" as="geometry" />
        </mxCell>
        <mxCell id="o_UP_RoTdqypcuIoV4oH-4" value="Production&lt;br&gt;?" style="rounded=1;whiteSpace=wrap;html=1;fillColor=#dae8fc;strokeColor=#6c8ebf;" vertex="1" parent="1">
          <mxGeometry x="60" y="1896" width="120" height="60" as="geometry" />
        </mxCell>
        <mxCell id="xMmDxgA52zjlr51yU6Mr-10" style="edgeStyle=orthogonalEdgeStyle;rounded=0;orthogonalLoop=1;jettySize=auto;html=1;strokeWidth=2;" parent="1" source="xMmDxgA52zjlr51yU6Mr-2" target="xMmDxgA52zjlr51yU6Mr-7" edge="1">
          <mxGeometry relative="1" as="geometry" />
        </mxCell>
        <mxCell id="xMmDxgA52zjlr51yU6Mr-11" style="edgeStyle=orthogonalEdgeStyle;rounded=0;orthogonalLoop=1;jettySize=auto;html=1;entryX=0;entryY=0.5;entryDx=0;entryDy=0;strokeWidth=2;" parent="1" source="xMmDxgA52zjlr51yU6Mr-3" target="xMmDxgA52zjlr51yU6Mr-8" edge="1">
          <mxGeometry relative="1" as="geometry" />
        </mxCell>
        <mxCell id="xMmDxgA52zjlr51yU6Mr-12" style="edgeStyle=orthogonalEdgeStyle;rounded=0;orthogonalLoop=1;jettySize=auto;html=1;entryX=0;entryY=0.5;entryDx=0;entryDy=0;strokeWidth=2;" parent="1" source="xMmDxgA52zjlr51yU6Mr-5" target="xMmDxgA52zjlr51yU6Mr-8" edge="1">
          <mxGeometry relative="1" as="geometry" />
        </mxCell>
        <mxCell id="xMmDxgA52zjlr51yU6Mr-13" style="edgeStyle=orthogonalEdgeStyle;rounded=0;orthogonalLoop=1;jettySize=auto;html=1;strokeWidth=2;" parent="1" source="xMmDxgA52zjlr51yU6Mr-6" target="xMmDxgA52zjlr51yU6Mr-9" edge="1">
          <mxGeometry relative="1" as="geometry" />
        </mxCell>
        <mxCell id="xMmDxgA52zjlr51yU6Mr-16" style="edgeStyle=orthogonalEdgeStyle;rounded=0;orthogonalLoop=1;jettySize=auto;html=1;exitX=0;exitY=0.5;exitDx=0;exitDy=0;strokeWidth=2;" parent="1" source="xMmDxgA52zjlr51yU6Mr-3" target="xMmDxgA52zjlr51yU6Mr-14" edge="1">
          <mxGeometry relative="1" as="geometry" />
        </mxCell>
        <mxCell id="xMmDxgA52zjlr51yU6Mr-17" style="edgeStyle=orthogonalEdgeStyle;rounded=0;orthogonalLoop=1;jettySize=auto;html=1;exitX=0;exitY=0.5;exitDx=0;exitDy=0;strokeWidth=2;" parent="1" source="xMmDxgA52zjlr51yU6Mr-5" edge="1">
          <mxGeometry relative="1" as="geometry">
            <mxPoint x="400" y="1686" as="targetPoint" />
            <Array as="points">
              <mxPoint x="460" y="1846" />
              <mxPoint x="460" y="1686" />
            </Array>
          </mxGeometry>
        </mxCell>
        <mxCell id="xMmDxgA52zjlr51yU6Mr-24" style="edgeStyle=orthogonalEdgeStyle;rounded=0;orthogonalLoop=1;jettySize=auto;html=1;exitX=0;exitY=0.5;exitDx=0;exitDy=0;strokeWidth=2;" parent="1" source="xMmDxgA52zjlr51yU6Mr-2" target="xMmDxgA52zjlr51yU6Mr-14" edge="1">
          <mxGeometry relative="1" as="geometry">
            <Array as="points">
              <mxPoint x="460" y="1606" />
              <mxPoint x="460" y="1686" />
            </Array>
          </mxGeometry>
        </mxCell>
        <mxCell id="o_UP_RoTdqypcuIoV4oH-1" style="edgeStyle=orthogonalEdgeStyle;rounded=0;orthogonalLoop=1;jettySize=auto;html=1;exitX=0;exitY=0.5;exitDx=0;exitDy=0;entryX=1;entryY=0.5;entryDx=0;entryDy=0;strokeWidth=2;" edge="1" parent="1" source="xMmDxgA52zjlr51yU6Mr-1" target="xMmDxgA52zjlr51yU6Mr-14">
          <mxGeometry relative="1" as="geometry" />
        </mxCell>
        <mxCell id="o_UP_RoTdqypcuIoV4oH-6" style="edgeStyle=orthogonalEdgeStyle;rounded=0;orthogonalLoop=1;jettySize=auto;html=1;strokeWidth=2;" edge="1" parent="1" source="xMmDxgA52zjlr51yU6Mr-14" target="o_UP_RoTdqypcuIoV4oH-3">
          <mxGeometry relative="1" as="geometry" />
        </mxCell>
        <mxCell id="xMmDxgA52zjlr51yU6Mr-19" style="edgeStyle=orthogonalEdgeStyle;rounded=0;orthogonalLoop=1;jettySize=auto;html=1;exitX=0;exitY=0.5;exitDx=0;exitDy=0;strokeWidth=2;" parent="1" source="xMmDxgA52zjlr51yU6Mr-6" target="xMmDxgA52zjlr51yU6Mr-18" edge="1">
          <mxGeometry relative="1" as="geometry" />
        </mxCell>
        <mxCell id="o_UP_RoTdqypcuIoV4oH-5" style="edgeStyle=orthogonalEdgeStyle;rounded=0;orthogonalLoop=1;jettySize=auto;html=1;entryX=1;entryY=0.5;entryDx=0;entryDy=0;strokeWidth=2;" edge="1" parent="1" source="xMmDxgA52zjlr51yU6Mr-18" target="o_UP_RoTdqypcuIoV4oH-4">
          <mxGeometry relative="1" as="geometry" />
        </mxCell>
        <mxCell id="o_UP_RoTdqypcuIoV4oH-7" value="SIT" style="rounded=1;whiteSpace=wrap;html=1;fillColor=#d5e8d4;strokeColor=#82b366;" vertex="1" parent="1">
          <mxGeometry x="510" y="1570" width="50" height="20" as="geometry" />
        </mxCell>
        <mxCell id="o_UP_RoTdqypcuIoV4oH-8" value="UAT" style="rounded=1;whiteSpace=wrap;html=1;fillColor=#d5e8d4;strokeColor=#82b366;" vertex="1" parent="1">
          <mxGeometry x="510" y="1650" width="50" height="20" as="geometry" />
        </mxCell>
        <mxCell id="o_UP_RoTdqypcuIoV4oH-9" value="MOT" style="rounded=1;whiteSpace=wrap;html=1;fillColor=#d5e8d4;strokeColor=#82b366;" vertex="1" parent="1">
          <mxGeometry x="510" y="1734" width="50" height="20" as="geometry" />
        </mxCell>
        <mxCell id="o_UP_RoTdqypcuIoV4oH-10" value="SIT" style="rounded=1;whiteSpace=wrap;html=1;fillColor=#d5e8d4;strokeColor=#82b366;" vertex="1" parent="1">
          <mxGeometry x="270" y="1650" width="50" height="20" as="geometry" />
        </mxCell>
        <mxCell id="o_UP_RoTdqypcuIoV4oH-11" value="UAT" style="rounded=1;whiteSpace=wrap;html=1;fillColor=#d5e8d4;strokeColor=#82b366;" vertex="1" parent="1">
          <mxGeometry x="270" y="1670" width="50" height="20" as="geometry" />
        </mxCell>
        <mxCell id="o_UP_RoTdqypcuIoV4oH-12" value="SIT" style="rounded=1;whiteSpace=wrap;html=1;fillColor=#d5e8d4;strokeColor=#82b366;" vertex="1" parent="1">
          <mxGeometry x="50" y="1650" width="50" height="20" as="geometry" />
        </mxCell>
        <mxCell id="o_UP_RoTdqypcuIoV4oH-13" value="UAT" style="rounded=1;whiteSpace=wrap;html=1;fillColor=#d5e8d4;strokeColor=#82b366;" vertex="1" parent="1">
          <mxGeometry x="50" y="1670" width="50" height="20" as="geometry" />
        </mxCell>
        <mxCell id="o_UP_RoTdqypcuIoV4oH-14" value="SIT" style="rounded=1;whiteSpace=wrap;html=1;fillColor=#d5e8d4;strokeColor=#82b366;" vertex="1" parent="1">
          <mxGeometry x="750" y="1560" width="50" height="20" as="geometry" />
        </mxCell>
        <mxCell id="o_UP_RoTdqypcuIoV4oH-15" value="UAT" style="rounded=1;whiteSpace=wrap;html=1;fillColor=#d5e8d4;strokeColor=#82b366;" vertex="1" parent="1">
          <mxGeometry x="750" y="1714" width="50" height="20" as="geometry" />
        </mxCell>
        <mxCell id="o_UP_RoTdqypcuIoV4oH-16" value="ITHC" style="rounded=1;whiteSpace=wrap;html=1;fillColor=#d5e8d4;strokeColor=#82b366;" vertex="1" parent="1">
          <mxGeometry x="510" y="1810" width="50" height="20" as="geometry" />
        </mxCell>
      </root>
    </mxGraphModel>
  </diagram>
</mxfile>
